<!-- Generator: Adobe Illustrator 19.0.0, SVG Export Plug-In  -->
<svg version="1.1"
	 xmlns="http://www.w3.org/2000/svg" xmlns:xlink="http://www.w3.org/1999/xlink" xmlns:a="http://ns.adobe.com/AdobeSVGViewerExtensions/3.0/"
	 x="0px" y="0px" width="19.4px" height="20.8px" viewBox="0 0 19.4 20.8" style="enable-background:new 0 0 19.4 20.8;"
	 xml:space="preserve">
<style type="text/css">
	.st0{fill:#76B2E2;}
</style>
<defs>
</defs>
<g>
	<path class="st0" d="M0.4,15.4c0.2,0,0.4-0.2,0.4-0.4c0-0.6,0.5-1.1,1.1-1.1c0.6,0,1.1,0.5,1.1,1.1c0,0.2,0.2,0.4,0.4,0.4
		c0.2,0,0.4-0.2,0.4-0.4c0-1-0.8-1.8-1.8-1.8c-1,0-1.8,0.8-1.8,1.8C0,15.3,0.2,15.4,0.4,15.4z"/>
	<path class="st0" d="M0.4,13.3c0.2,0,0.4-0.2,0.4-0.4c0-0.6,0.5-1.1,1.1-1.1c0.6,0,1.1,0.5,1.1,1.1c0,0.2,0.2,0.4,0.4,0.4
		c0.2,0,0.4-0.2,0.4-0.4c0-1-0.8-1.8-1.8-1.8c-1,0-1.8,0.8-1.8,1.8C0,13.1,0.2,13.3,0.4,13.3z"/>
	<path class="st0" d="M0.4,11.1c0.2,0,0.4-0.2,0.4-0.4c0-0.6,0.5-1.1,1.1-1.1c0.6,0,1.1,0.5,1.1,1.1c0,0.2,0.2,0.4,0.4,0.4
		c0.2,0,0.4-0.2,0.4-0.4c0-1-0.8-1.8-1.8-1.8C0.8,9,0,9.8,0,10.8C0,11,0.2,11.1,0.4,11.1z"/>
	<path class="st0" d="M0.4,9c0.2,0,0.4-0.2,0.4-0.4c0-0.6,0.5-1.1,1.1-1.1c0.6,0,1.1,0.5,1.1,1.1C2.9,8.8,3,9,3.2,9
		c0.2,0,0.4-0.2,0.4-0.4c0-1-0.8-1.8-1.8-1.8C0.8,6.8,0,7.6,0,8.6C0,8.8,0.2,9,0.4,9z"/>
	<path class="st0" d="M0.7,6.5c0-0.6,0.5-1.1,1.1-1.1c0.6,0,1.1,0.5,1.1,1.1c0,0.2,0.2,0.4,0.4,0.4c0.2,0,0.4-0.2,0.4-0.4
		c0-1-0.8-1.8-1.8-1.8C0.8,4.7,0,5.5,0,6.5c0,0.2,0.2,0.4,0.4,0.4C0.6,6.8,0.7,6.7,0.7,6.5z"/>
	<path class="st0" d="M17.9,0h-0.7h-2.5H6.1v0H1.4v2.5C0.6,2.7,0,3.4,0,4.3c0,0.2,0.2,0.4,0.4,0.4c0.2,0,0.4-0.2,0.4-0.4
		c0-0.6,0.5-1.1,1.1-1.1c0.6,0,1.1,0.5,1.1,1.1c0,0.2,0.2,0.4,0.4,0.4c0.2,0,0.4-0.2,0.4-0.4c0-0.9-0.6-1.6-1.4-1.8V0.7h3.2v19.4
		H2.2v-1.4v-1.1c0-0.2-0.2-0.4-0.4-0.4c-0.2,0-0.4,0.2-0.4,0.4v0.7c-0.4-0.1-0.7-0.5-0.7-1c0-0.6,0.5-1.1,1.1-1.1
		c0.6,0,1.1,0.5,1.1,1.1c0,0.2,0.2,0.4,0.4,0.4c0.2,0,0.4-0.2,0.4-0.4c0-1-0.8-1.8-1.8-1.8c-1,0-1.8,0.8-1.8,1.8
		c0,0.9,0.6,1.6,1.4,1.8v1.8h3.9h0.7h8.6h2.5h0.7c0.8,0,1.4-0.6,1.4-1.4V1.4C19.4,0.6,18.7,0,17.9,0z M6.1,20.1V0.7h8.6v19.4H6.1z
		 M15.4,20.1V0.7h1.1v19.4H15.4z M18.6,19.4c0,0.4-0.3,0.7-0.7,0.7h-0.7V0.7h0.7c0.4,0,0.7,0.3,0.7,0.7V19.4z"/>
</g>
</svg>
