<!-- Generator: Adobe Illustrator 19.0.0, SVG Export Plug-In  -->
<svg version="1.1"
	 xmlns="http://www.w3.org/2000/svg" xmlns:xlink="http://www.w3.org/1999/xlink" xmlns:a="http://ns.adobe.com/AdobeSVGViewerExtensions/3.0/"
	 x="0px" y="0px" width="12.1px" height="17.8px" viewBox="0 0 12.1 17.8" style="enable-background:new 0 0 12.1 17.8;"
	 xml:space="preserve">
<style type="text/css">
	.st0{fill:#76B2E2;}
</style>
<defs>
</defs>
<g>
	<g id="c28_geolocalization_1_">
		<path class="st0" d="M6.1,0C2.7,0,0,2.7,0,6c0,1.7,1.7,4.8,1.7,4.8l4.2,7.1l4.3-7c0,0,1.9-2.9,1.9-4.8C12.1,2.7,9.4,0,6.1,0z
			 M6,9.3c-1.9,0-3.5-1.6-3.5-3.5C2.6,4,4.1,2.4,6,2.4C8,2.4,9.5,4,9.5,5.9C9.5,7.8,8,9.3,6,9.3z"/>
		<polygon class="st0" points="6.8,3.8 5.4,3.8 5.4,5.3 3.8,5.3 3.8,6.7 5.4,6.7 5.4,8.3 6.8,8.3 6.8,6.7 8.3,6.7 8.3,5.3 6.8,5.3 
					"/>
	</g>
	<g id="Capa_1_1_">
	</g>
</g>
</svg>
