<!-- Generator: Adobe Illustrator 19.0.0, SVG Export Plug-In  -->
<svg version="1.1"
	 xmlns="http://www.w3.org/2000/svg" xmlns:xlink="http://www.w3.org/1999/xlink" xmlns:a="http://ns.adobe.com/AdobeSVGViewerExtensions/3.0/"
	 x="0px" y="0px" width="24px" height="17.3px" viewBox="0 0 24 17.3" style="enable-background:new 0 0 24 17.3;"
	 xml:space="preserve">
<style type="text/css">
	.st0{fill:#76B2E2;}
</style>
<defs>
</defs>
<g>
	<path class="st0" d="M21.4,2.9c-0.5,0-1,0.1-1.4,0.4L18,1.2c-1.6-1.6-4.2-1.6-5.8,0C11.4,2,11,3,11,4.1c0,1.1,0.4,2.1,1.2,2.9
		l4.2,4.2c0.6,0.6,0.9,1.3,0.9,2.1c0,0.8-0.3,1.5-0.8,2.1c-1.1,1.1-3,1.1-4.1-0.1l-1.6-1.6c0.5-0.7,0.8-1.5,0.7-2.4
		c0-1.1-0.5-2.1-1.2-2.9C10.1,8.2,10,8.1,9.8,8.2L6,4.4C5.6,3.9,5.1,3.9,4.8,3.9C4.2,4,3.8,4.7,3.6,4.9C3.5,4.9,3.4,5,3.2,5.1
		C3,5.3,3,5.7,3.2,5.9C3.4,6.1,3.8,6.1,4,5.9c0.1-0.1,0.2-0.3,0.2-0.4c0,0,0.1-0.1,0.1-0.1C4.4,5.2,4.7,4.7,5,4.7
		c0.1,0,0.2,0,0.5,0.2l3.8,3.8c0,0.2,0,0.3,0.2,0.4c0.6,0.6,0.9,1.3,0.9,2.1c0,0.8-0.3,1.5-0.8,2.1c-0.5,0.5-1.3,0.8-2.1,0.8
		c-0.8,0-1.6-0.3-2.1-0.9c-0.1-0.1-0.3-0.2-0.4-0.2L1,9.4C0.8,9.1,0.8,8.9,0.8,8.9c0-0.3,0.5-0.6,0.6-0.7c0.2-0.1,0.3-0.3,0.2-0.5
		C1.5,7.5,1.3,7.4,1.1,7.5C1,7.5,0.1,8,0,8.7C0,9,0,9.5,0.5,9.9l3.8,3.8c0,0.2,0,0.2,0.2,0.3c0.8,0.8,1.8,1.1,2.9,1.1c0,0,0,0,0.1,0
		c0.9,0,1.8-0.2,2.5-0.7l1.5,1.6c0.8,0.8,1.9,1.3,3,1.3c1,0,2-0.4,2.8-1.1c0.8-0.8,1.2-1.8,1.2-2.9c0-1.1-0.5-2.1-1.3-2.9L13,6.1
		c-0.5-0.5-0.8-1.3-0.8-2c0-0.8,0.3-1.5,0.9-2.1c1.1-1.1,3-1.1,4.1,0l2.1,2.1C19,4.5,18.8,5,18.8,5.5c0,1.4,1.2,2.6,2.6,2.6
		c1.4,0,2.6-1.2,2.6-2.6C24,4,22.9,2.9,21.4,2.9z M21.4,6.9c-0.8,0-1.4-0.6-1.4-1.4c0-0.8,0.6-1.4,1.4-1.4c0.8,0,1.4,0.6,1.4,1.4
		C22.8,6.2,22.2,6.9,21.4,6.9z"/>
	<circle class="st0" cx="21.4" cy="5.5" r="0.6"/>
</g>
</svg>
