<!-- Generator: Adobe Illustrator 18.0.0, SVG Export Plug-In  -->
<svg version="1.1"
	 xmlns="http://www.w3.org/2000/svg" xmlns:xlink="http://www.w3.org/1999/xlink" xmlns:a="http://ns.adobe.com/AdobeSVGViewerExtensions/3.0/"
	 x="0px" y="0px" width="32.3px" height="30.8px" viewBox="0 0 32.3 30.8" enable-background="new 0 0 32.3 30.8"
	 xml:space="preserve">
<defs>
</defs>
<g>
	<g>
		<path fill="#FFFFFF" d="M21,0.1c5.9,2,9.8,7.6,9.3,14.1c-0.6,8.2-8,14.9-16.5,14.9C7,29.1,1.5,24.8,0,18.8c1.1,6.9,7.2,12,14.9,12
			c9,0,16.7-7,17.4-15.5C32.8,7.9,28,1.8,21,0.1z"/>
	</g>
	<path fill="#FFFFFF" d="M14.1,28.3c1.6-0.3,3.8-1.7,4.2-5c0.6-4.9-9.9-5.6-8.9-14h-8L0,18.4h9.9l-1.4,9.9
		C10,28.5,12.2,28.5,14.1,28.3z"/>
	<path fill="#FFFFFF" d="M15.5,0.2c-1.6,0.2-3.8,1.6-4.2,5c-0.6,4.9,9.9,5.6,8.9,14h7.9l1.4-9.1h-9.9l1.4-9.9
		C19.6,0,17.5-0.1,15.5,0.2z"/>
</g>
</svg>
