<!-- Generator: Adobe Illustrator 18.0.0, SVG Export Plug-In  -->
<svg version="1.1"
	 xmlns="http://www.w3.org/2000/svg" xmlns:xlink="http://www.w3.org/1999/xlink" xmlns:a="http://ns.adobe.com/AdobeSVGViewerExtensions/3.0/"
	 x="0px" y="0px" width="140.3px" height="31.2px" viewBox="0 0 140.3 31.2" enable-background="new 0 0 140.3 31.2"
	 xml:space="preserve">
<defs>
</defs>
<g>
	<g>
		<g>
			<g>
				<g>
					<g>
						<path fill="#FFFFFF" d="M17.2,0.1c4.8,1.7,8,6.2,7.6,11.5c-0.5,6.7-6.5,12.2-13.5,12.2c-5.6,0-10.1-3.6-11.3-8.5
							c0.9,5.6,5.9,9.8,12.2,9.8c7.3,0,13.7-5.7,14.2-12.7C26.8,6.5,22.9,1.5,17.2,0.1z"/>
					</g>
					<path fill="#FFFFFF" d="M11.6,23.1c1.3-0.2,3.1-1.4,3.4-4.1c0.5-4-8.1-4.5-7.3-11.4H1.2L0,15h8.1L7,23.1
						C8.2,23.3,9.9,23.3,11.6,23.1z"/>
					<path fill="#FFFFFF" d="M12.7,0.2c-1.3,0.2-3.1,1.3-3.4,4.1c-0.5,4,8.1,4.6,7.3,11.4H23l1.2-7.4h-8.1l1.1-8.1
						C16,0,14.3-0.1,12.7,0.2z"/>
				</g>
				<path fill="#FFFFFF" d="M41.5,16.2H29v-0.6c0.9-0.2,1.4-0.2,1.8-1.6L33.6,4c0-0.2,0.2-0.9,0.2-1.3c0-0.7-0.3-0.8-1.6-0.9V1.2
					h12.1l-1,4.3l-0.6-0.1c0-1.7,0-3.4-4.2-3.4c-0.9,0-1.1,0.4-1.3,1l-1.4,5c3.3,0.1,3.6-0.6,4.6-2.4L41,5.6l-1.7,6.1l-0.6-0.1
					c0.1-0.4,0.1-0.6,0.1-0.9c0-1.6-0.7-2.1-3.2-2.1l-1.3,4.7c-0.1,0.5-0.3,1.2-0.3,1.4c0,0.5,0.2,0.8,1.4,0.8
					c2.7,0,5.2-0.9,6.8-3.7l0.6,0.1L41.5,16.2z"/>
				<path fill="#FFFFFF" d="M53.5,9.5L53,9.4c0-0.2,0-0.3,0-0.5c0-1.4-0.7-2.4-2-2.4c-2.4,0-4.1,3.8-4.1,6.5c0,2.7,1.9,2.7,2.1,2.7
					c1.2,0,2.1-0.4,3.2-1.8l0.4,0.3c-0.8,1.2-2.1,2.2-4,2.2c-1.9,0-4-1.1-4-3.8c0-3.3,2.5-6.6,6.1-6.6c1.3,0,2.1,0.4,2.5,0.4
					c0.3,0,0.4-0.2,0.6-0.4h0.4L53.5,9.5z"/>
				<path fill="#FFFFFF" d="M64.9,6.6c-0.7,0.2-0.9,0.2-1.5,2.3l-1,3.4c-0.6,2.1-1.2,4.2-4.3,4.2c-1.6,0-3.3-0.8-3.3-2.5
					c0-1.3,1.6-6,1.6-6.7c0-0.5-0.2-0.5-1.1-0.6V6.3h4.6v0.4c-0.8,0-1.1,0.1-1.4,1.1l-1.2,4.5c-0.3,1.2-0.4,1.5-0.4,2
					c0,0.7,0.5,1.5,1.8,1.5c2.1,0,2.7-2,3.1-3.6l0.9-3.1c0.1-0.3,0.3-1,0.3-1.4c0-0.7-0.8-0.8-1.2-0.8V6.3h3.1V6.6z"/>
				<path fill="#FFFFFF" d="M66,12.5l2.2-3.6l0.5,3.6H66z M72.4,15.8c-0.9-0.1-1.1-0.1-1.3-1.3l-1.4-8.5h-0.4l-5.5,8.7
					c-0.6,0.9-0.8,0.9-1.2,1v0.4h2.9v-0.4c-0.3,0-1,0-1-0.5c0-0.3,0.1-0.5,0.2-0.7l0.9-1.5h3.2c0.2,1.6,0.2,1.6,0.2,1.9
					c0,0.7-0.5,0.8-1.2,0.8v0.4h4.5V15.8z"/>
				<path fill="#FFFFFF" d="M74.1,11.6l0.6,0c0.1,3.9,2.5,4.2,3.5,4.2c2.5,0,2.8-2.4,2.8-2.8c0-2.9-5.5-4.1-5.5-7.8
					c0-2.2,1.6-4.4,4.6-4.4c1.3,0,2.6,0.7,3.2,0.7c0.1,0,0.7,0,1-0.6H85l-0.9,4.5l-0.6-0.1c-0.1-1.3-0.4-3.7-3-3.7
					c-2.3,0-2.3,2.1-2.3,2.4c0,1.7,1.4,2,3.5,4c1,1,2,2.3,2,3.8c0,3-1.8,4.8-5.3,4.8c-1.7,0-3-0.8-3.6-0.8c-0.6,0-0.7,0.3-0.9,0.8
					h-0.7L74.1,11.6z"/>
				<path fill="#FFFFFF" d="M87.7,12.5l2.2-3.6l0.5,3.6H87.7z M94.1,15.8c-0.9-0.1-1-0.1-1.2-1.3l-1.4-8.5H91l-5.5,8.7
					c-0.6,0.9-0.8,0.9-1.2,1v0.4h2.9v-0.4c-0.3,0-1,0-1-0.5c0-0.3,0.1-0.5,0.2-0.7l0.9-1.5h3.2c0.2,1.6,0.2,1.6,0.2,1.9
					c0,0.7-0.5,0.8-1.2,0.8v0.4h4.5V15.8z"/>
				<path fill="#FFFFFF" d="M102.6,13.2l1.2-4.3c0.1-0.3,0.3-1,0.3-1.4c0-0.8-0.6-0.9-1.2-0.9V6.3h3.1v0.4c-0.8,0.2-0.9,0.2-1.5,2.3
					l-2.1,7.5H102l-3.8-8.1l-1.5,5.3c-0.1,0.3-0.3,1-0.3,1.4c0,0.8,0.6,0.9,1.2,0.9v0.4h-3.1v-0.4c0.7-0.2,0.9-0.2,1.5-2.3l1.8-6.1
					c-0.3-0.7-0.4-0.7-1.2-0.8V6.3h2.9L102.6,13.2z"/>
				<path fill="#FFFFFF" d="M109.3,16.2h-4.4v-0.4c0.6-0.1,1-0.2,1.2-1.1l1.8-6.7c0,0,0.1-0.6,0.1-0.8c0-0.5-0.1-0.5-1.1-0.6V6.3
					h4.4v0.4c-0.6,0.1-1,0.1-1.2,1.1l-1.7,6.2c-0.1,0.4-0.3,1-0.3,1.2c0,0.5,0.3,0.6,1.1,0.6V16.2z"/>
				<path fill="#FFFFFF" d="M120,9.1l-0.4,0c-0.1-2.2-1.3-2.3-2-2.3l-2.1,7.5c-0.1,0.2-0.2,0.7-0.2,0.9c0,0.6,0.4,0.6,1.2,0.6v0.4
					h-4.9v-0.4c0.7,0,1.3,0,1.6-1.1l2.2-8c-1.4,0-2.5,0.6-3.2,2.1l-0.4-0.1l0.6-2.5h8.2L120,9.1z"/>
				<path fill="#FFFFFF" d="M121.2,12.5l2.2-3.6l0.6,3.6H121.2z M127.7,15.8c-0.9-0.1-1.1-0.1-1.3-1.3L125,6.1h-0.4l-5.5,8.7
					c-0.5,0.9-0.8,0.9-1.2,1v0.4h2.9v-0.4c-0.3,0-1,0-1-0.5c0-0.3,0.1-0.5,0.2-0.7l0.9-1.5h3.2c0.2,1.6,0.2,1.6,0.2,1.9
					c0,0.7-0.5,0.8-1.2,0.8v0.4h4.5V15.8z"/>
				<path fill="#FFFFFF" d="M129.3,11.6l0.6,0c0.1,3.9,2.5,4.2,3.5,4.2c2.5,0,2.8-2.4,2.8-2.8c0-2.9-5.5-4.1-5.5-7.8
					c0-2.2,1.6-4.4,4.6-4.4c1.3,0,2.6,0.7,3.2,0.7c0.1,0,0.7,0,1-0.6h0.7l-0.9,4.5l-0.6-0.1c-0.1-1.3-0.4-3.7-3-3.7
					c-2.3,0-2.3,2.1-2.3,2.4c0,1.7,1.4,2,3.5,4c1,1,2,2.3,2,3.8c0,3-1.8,4.8-5.3,4.8c-1.7,0-3-0.8-3.6-0.8c-0.6,0-0.7,0.3-0.9,0.8
					h-0.7L129.3,11.6z"/>
				<rect x="29.9" y="19.6" fill="#FFFFFF" width="109.1" height="1.2"/>
			</g>
		</g>
		<g>
			<path fill="#FFFFFF" d="M30.2,28.8c0,1.4,0.8,2,1.7,2c0.7,0,1-0.1,1.2-0.3l0.1,0.3c-0.2,0.1-0.6,0.3-1.4,0.3
				c-1.3,0-2.1-0.9-2.1-2.3c0-1.5,0.9-2.4,2-2.4c1.5,0,1.8,1.4,1.8,2c0,0.1,0,0.2,0,0.3H30.2z M33,28.5c0-0.6-0.3-1.6-1.3-1.6
				c-1,0-1.4,0.9-1.5,1.6H33z"/>
			<path fill="#FFFFFF" d="M36.4,30.5c0.2,0.1,0.6,0.3,1,0.3c0.7,0,1-0.4,1-0.9c0-0.5-0.3-0.8-0.9-1c-0.7-0.3-1.1-0.7-1.1-1.2
				c0-0.7,0.5-1.2,1.4-1.2c0.4,0,0.8,0.1,1,0.3l-0.2,0.4c-0.2-0.1-0.4-0.3-0.9-0.3c-0.6,0-0.9,0.4-0.9,0.8c0,0.5,0.3,0.7,0.9,0.9
				c0.7,0.3,1.2,0.7,1.2,1.3c0,0.8-0.6,1.3-1.5,1.3c-0.4,0-0.8-0.1-1.1-0.3L36.4,30.5z"/>
			<path fill="#FFFFFF" d="M46.1,24.5h0.5v3h0c0.3-0.6,0.9-0.9,1.6-0.9c1.1,0,1.9,1,1.9,2.3c0,1.6-1,2.4-2,2.4
				c-0.7,0-1.3-0.3-1.6-0.9h0l0,0.8H46c0-0.3,0-0.7,0-1V24.5z M46.5,29.4c0,0.1,0,0.2,0,0.3c0.2,0.7,0.8,1.1,1.5,1.1
				c1,0,1.6-0.8,1.6-2c0-1-0.6-1.9-1.6-1.9c-0.7,0-1.3,0.4-1.5,1.2c0,0.1-0.1,0.2-0.1,0.4V29.4z"/>
			<path fill="#FFFFFF" d="M56.7,30c0,0.4,0,0.7,0,1.1h-0.4l0-0.8h0c-0.2,0.4-0.7,0.9-1.5,0.9c-0.6,0-1.5-0.3-1.5-2v-2.6h0.4v2.5
				c0,1,0.3,1.7,1.2,1.7c0.7,0,1.1-0.5,1.3-0.9c0-0.1,0.1-0.3,0.1-0.5v-2.8h0.4V30z"/>
			<path fill="#FFFFFF" d="M60.2,28.8c0,1.4,0.8,2,1.7,2c0.7,0,1-0.1,1.2-0.3l0.1,0.3c-0.2,0.1-0.6,0.3-1.4,0.3
				c-1.3,0-2.1-0.9-2.1-2.3c0-1.5,0.9-2.4,2-2.4c1.5,0,1.8,1.4,1.8,2c0,0.1,0,0.2,0,0.3H60.2z M63.1,28.5c0-0.6-0.3-1.6-1.3-1.6
				c-1,0-1.4,0.9-1.5,1.6H63.1z"/>
			<path fill="#FFFFFF" d="M66.6,27.7c0-0.4,0-0.7,0-1.1H67l0,0.8h0c0.2-0.5,0.8-0.9,1.5-0.9c0.4,0,1.6,0.2,1.6,1.9v2.7h-0.5v-2.7
				c0-0.8-0.3-1.6-1.2-1.6c-0.6,0-1.2,0.4-1.3,1c0,0.1-0.1,0.3-0.1,0.4v2.8h-0.5V27.7z"/>
			<path fill="#FFFFFF" d="M75.3,31.2c-1.2,0-2.1-0.9-2.1-2.3c0-1.5,1-2.4,2.1-2.4c1.2,0,2.1,0.9,2.1,2.3
				C77.5,30.5,76.3,31.2,75.3,31.2L75.3,31.2z M75.3,30.9c0.9,0,1.7-0.8,1.7-2c0-0.8-0.5-2-1.6-2c-1.2,0-1.7,1-1.7,2
				C73.7,30,74.4,30.9,75.3,30.9L75.3,30.9z"/>
			<path fill="#FFFFFF" d="M84.6,28.8c0,1.4,0.8,2,1.7,2c0.7,0,1-0.1,1.2-0.3l0.1,0.3c-0.2,0.1-0.6,0.3-1.4,0.3
				c-1.3,0-2.1-0.9-2.1-2.3c0-1.5,0.9-2.4,2-2.4c1.5,0,1.8,1.4,1.8,2c0,0.1,0,0.2,0,0.3H84.6z M87.5,28.5c0-0.6-0.3-1.6-1.3-1.6
				c-1,0-1.4,0.9-1.5,1.6H87.5z"/>
			<path fill="#FFFFFF" d="M90.9,30.5c0.2,0.1,0.6,0.3,1,0.3c0.7,0,1-0.4,1-0.9c0-0.5-0.3-0.8-0.9-1c-0.7-0.3-1.1-0.7-1.1-1.2
				c0-0.7,0.5-1.2,1.4-1.2c0.4,0,0.8,0.1,1,0.3l-0.2,0.4c-0.2-0.1-0.4-0.3-0.9-0.3c-0.6,0-0.9,0.4-0.9,0.8c0,0.5,0.3,0.7,0.9,0.9
				c0.7,0.3,1.2,0.7,1.2,1.3c0,0.8-0.6,1.3-1.5,1.3c-0.4,0-0.8-0.1-1.1-0.3L90.9,30.5z"/>
			<path fill="#FFFFFF" d="M97.2,25.7v1h1.3V27h-1.3v2.9c0,0.6,0.2,0.9,0.7,0.9c0.2,0,0.4,0,0.5-0.1l0.1,0.3
				c-0.2,0.1-0.4,0.1-0.6,0.1c-0.3,0-0.6-0.1-0.8-0.3c-0.2-0.2-0.3-0.6-0.3-1.1V27H96v-0.4h0.8v-0.8L97.2,25.7z"/>
			<path fill="#FFFFFF" d="M104.2,30.1c0,0.4,0,0.7,0.1,1.1h-0.4l-0.1-0.6h0c-0.2,0.3-0.7,0.7-1.4,0.7c-0.9,0-1.3-0.6-1.3-1.2
				c0-1,0.9-1.7,2.7-1.6v-0.1c0-0.4-0.1-1.3-1.2-1.3c-0.4,0-0.8,0.1-1.1,0.3l-0.1-0.3c0.4-0.3,0.9-0.4,1.3-0.4c1.3,0,1.6,1,1.6,1.8
				V30.1z M103.8,28.7c-1,0-2.3,0.1-2.3,1.2c0,0.6,0.4,0.9,0.9,0.9c0.7,0,1.2-0.5,1.3-0.9c0-0.1,0-0.2,0-0.3V28.7z"/>
			<path fill="#FFFFFF" d="M107.6,28c0-0.5,0-0.9,0-1.3h0.4l0,0.9h0c0.2-0.6,0.7-1,1.3-1c0.1,0,0.1,0,0.2,0V27c-0.1,0-0.1,0-0.2,0
				c-0.6,0-1.1,0.5-1.2,1.3c0,0.1,0,0.3,0,0.4v2.5h-0.4V28z"/>
			<path fill="#FFFFFF" d="M116.2,30.5c0.2,0.1,0.6,0.3,1,0.3c0.7,0,1-0.4,1-0.9c0-0.5-0.3-0.8-0.9-1c-0.7-0.3-1.1-0.7-1.1-1.2
				c0-0.7,0.5-1.2,1.4-1.2c0.4,0,0.8,0.1,1,0.3l-0.2,0.4c-0.2-0.1-0.4-0.3-0.9-0.3c-0.6,0-0.9,0.4-0.9,0.8c0,0.5,0.3,0.7,0.9,0.9
				c0.7,0.3,1.2,0.7,1.2,1.3c0,0.8-0.6,1.3-1.5,1.3c-0.4,0-0.8-0.1-1.1-0.3L116.2,30.5z"/>
			<path fill="#FFFFFF" d="M124.6,30.1c0,0.4,0,0.7,0.1,1.1h-0.4l-0.1-0.6h0c-0.2,0.3-0.7,0.7-1.4,0.7c-0.9,0-1.3-0.6-1.3-1.2
				c0-1,0.9-1.7,2.7-1.6v-0.1c0-0.4-0.1-1.3-1.1-1.3c-0.4,0-0.8,0.1-1.1,0.3l-0.1-0.3c0.4-0.3,0.9-0.4,1.3-0.4c1.3,0,1.6,1,1.6,1.8
				V30.1z M124.2,28.7c-1,0-2.3,0.1-2.3,1.2c0,0.6,0.4,0.9,0.9,0.9c0.7,0,1.2-0.5,1.3-0.9c0-0.1,0-0.2,0-0.3V28.7z"/>
			<path fill="#FFFFFF" d="M128,27.7c0-0.4,0-0.7,0-1.1h0.4l0,0.8h0c0.2-0.5,0.8-0.9,1.5-0.9c0.4,0,1.6,0.2,1.6,1.9v2.7h-0.4v-2.7
				c0-0.8-0.3-1.6-1.2-1.6c-0.6,0-1.2,0.4-1.3,1c0,0.1-0.1,0.3-0.1,0.4v2.8H128V27.7z"/>
			<path fill="#FFFFFF" d="M136.7,31.2c-1.2,0-2.1-0.9-2.1-2.3c0-1.5,1-2.4,2.1-2.4c1.2,0,2.1,0.9,2.1,2.3
				C138.8,30.5,137.7,31.2,136.7,31.2L136.7,31.2z M136.7,30.9c0.9,0,1.7-0.8,1.7-2c0-0.8-0.5-2-1.6-2c-1.2,0-1.7,1-1.7,2
				C135.1,30,135.8,30.9,136.7,30.9L136.7,30.9z"/>
		</g>
	</g>
</g>
</svg>
