<!-- Generator: Adobe Illustrator 18.0.0, SVG Export Plug-In  -->
<svg version="1.1"
	 xmlns="http://www.w3.org/2000/svg" xmlns:xlink="http://www.w3.org/1999/xlink" xmlns:a="http://ns.adobe.com/AdobeSVGViewerExtensions/3.0/"
	 x="0px" y="0px" width="27.2px" height="31.7px" viewBox="0 0 27.2 31.7" enable-background="new 0 0 27.2 31.7"
	 xml:space="preserve">
<defs>
</defs>
<g>
	<g>
		<g>
			<path fill="#FFFFFF" d="M17.8,10H16V8.2c0-0.3-0.3-0.6-0.6-0.6h-3.5c-0.3,0-0.6,0.3-0.6,0.6V10H9.5c-0.3,0-0.6,0.3-0.6,0.6v3.5
				c0,0.3,0.3,0.6,0.6,0.6h1.8v1.8c0,0.3,0.3,0.6,0.6,0.6h3.5c0.3,0,0.6-0.3,0.6-0.6v-1.8h1.8c0.3,0,0.6-0.3,0.6-0.6v-3.5
				C18.4,10.2,18.1,10,17.8,10z M17.2,13.5h-1.8c-0.3,0-0.6,0.3-0.6,0.6v1.8h-2.3v-1.8c0-0.3-0.3-0.6-0.6-0.6h-1.8v-2.3h1.8
				c0.3,0,0.6-0.3,0.6-0.6V8.8h2.3v1.8c0,0.3,0.3,0.6,0.6,0.6h1.8V13.5z"/>
		</g>
	</g>
	<g>
		<g>
			<path fill="#FFFFFF" d="M1.2,27.5c0-1.6,1.2-2.9,2.8-2.9c0,0,0.1,0,0.2,0h22.4c0.3,0,0.6-0.3,0.6-0.6V0.6c0-0.3-0.3-0.6-0.6-0.6
				H4.9C2.2,0,0,2.2,0,4.9v22.5c0,0,0,0,0,0c0,0,0,0,0,0c0,2.3,1.9,4.2,4.2,4.2h22.4c0.3,0,0.6-0.3,0.6-0.6c0-0.3-0.3-0.6-0.6-0.6
				H4.2C2.6,30.4,1.2,29.1,1.2,27.5C1.2,27.5,1.2,27.5,1.2,27.5L1.2,27.5z M1.2,24.5V4.9c0-2,1.7-3.7,3.7-3.7h21v22H4.2
				c-0.1,0-0.1,0-0.2,0c-0.1,0-0.1,0-0.2,0c0,0,0,0,0,0C2.8,23.4,1.9,23.8,1.2,24.5z"/>
		</g>
	</g>
	<g>
		<g>
			<path fill="#FFFFFF" d="M21.8,26.8H3.6c-0.3,0-0.6,0.3-0.6,0.6c0,0.3,0.3,0.6,0.6,0.6h18.2c0.3,0,0.6-0.3,0.6-0.6
				C22.4,27.1,22.1,26.8,21.8,26.8z"/>
		</g>
	</g>
	<g>
		<g>
			<path fill="#FFFFFF" d="M26.6,26.8h-2.9c-0.3,0-0.6,0.3-0.6,0.6c0,0.3,0.3,0.6,0.6,0.6h2.9c0.3,0,0.6-0.3,0.6-0.6
				C27.2,27.1,26.9,26.8,26.6,26.8z"/>
		</g>
	</g>
	<g>
		<g>
			<path fill="#FFFFFF" d="M3,7.3c-0.3,0-0.6,0.3-0.6,0.6V20c0,0.3,0.3,0.6,0.6,0.6c0.3,0,0.6-0.3,0.6-0.6V7.9
				C3.6,7.5,3.3,7.3,3,7.3z"/>
		</g>
	</g>
	<g>
		<g>
			<path fill="#FFFFFF" d="M3,4C2.7,4,2.4,4.3,2.4,4.6V6c0,0.3,0.3,0.6,0.6,0.6c0.3,0,0.6-0.3,0.6-0.6V4.6C3.6,4.3,3.3,4,3,4z"/>
		</g>
	</g>
</g>
</svg>
