<!-- Generator: Adobe Illustrator 18.0.0, SVG Export Plug-In  -->
<svg version="1.1"
	 xmlns="http://www.w3.org/2000/svg" xmlns:xlink="http://www.w3.org/1999/xlink" xmlns:a="http://ns.adobe.com/AdobeSVGViewerExtensions/3.0/"
	 x="0px" y="0px" width="54px" height="54px" viewBox="0 0 54 54" enable-background="new 0 0 54 54" xml:space="preserve">
<defs>
</defs>
<g>
	<path fill="#FFFFFF" d="M27,54C12.1,54,0,41.9,0,27S12.1,0,27,0s27,12.1,27,27S41.9,54,27,54z M27,1C12.7,1,1,12.7,1,27
		s11.7,26,26,26s26-11.7,26-26S41.3,1,27,1z"/>
</g>
<g>
	<path fill="#FFFFFF" d="M43,21.8L27,6.9L11,21.8c-0.2,0.2-0.2,0.6,0,0.8c0.2,0.2,0.6,0.2,0.8,0l1.8-1.7v18.6h8.9h8.9h8.9V20.9
		l1.8,1.7c0.1,0.1,0.2,0.1,0.4,0.1c0.1,0,0.3-0.1,0.4-0.2C43.2,22.3,43.2,22,43,21.8z M23.7,38.3v-8.9c0-1.8,1.5-3.3,3.3-3.3
		c1.8,0,3.3,1.5,3.3,3.3v8.9H23.7z M39.3,38.3h-7.8v-8.9c0-2.5-2-4.5-4.5-4.5c-2.5,0-4.5,2-4.5,4.5v8.9h-7.8V19.8L27,8.4l12.3,11.4
		V38.3z"/>
	<path fill="#FFFFFF" d="M40.6,39.7H13.4V21.4L12,22.8c-0.3,0.3-0.8,0.3-1.1,0c-0.3-0.3-0.3-0.8,0-1.1L27,6.6l0.2,0.2l16,14.8
		c0.3,0.3,0.3,0.8,0,1.1c-0.3,0.3-0.8,0.3-1.1,0l-1.4-1.3V39.7z M13.9,39.2h26.2V20.3l2.3,2.1c0.2,0.2,0.3,0.1,0.4,0
		c0.1-0.1,0.1-0.3,0-0.4L27,7.3L11.2,21.9c-0.1,0.1-0.1,0.3,0,0.4c0.1,0.1,0.3,0.1,0.4,0l2.3-2.1V39.2z M39.5,38.6h-8.3v-9.2
		c0-2.3-1.9-4.2-4.2-4.2s-4.2,1.9-4.2,4.2v9.2h-8.3V19.7L27,8.1l12.5,11.6V38.6z M31.7,38.1H39V19.9L27,8.8L15,19.9v18.1h7.3v-8.7
		c0-2.6,2.1-4.7,4.7-4.7c2.6,0,4.7,2.1,4.7,4.7V38.1z M30.6,38.6h-7.2v-9.2c0-2,1.6-3.6,3.6-3.6c2,0,3.6,1.6,3.6,3.6V38.6z
		 M23.9,38.1h6.2v-8.7c0-1.7-1.4-3.1-3.1-3.1c-1.7,0-3.1,1.4-3.1,3.1V38.1z"/>
</g>
</svg>
