<!-- Generator: Adobe Illustrator 18.0.0, SVG Export Plug-In  -->
<svg version="1.1"
	 xmlns="http://www.w3.org/2000/svg" xmlns:xlink="http://www.w3.org/1999/xlink" xmlns:a="http://ns.adobe.com/AdobeSVGViewerExtensions/3.0/"
	 x="0px" y="0px" width="54px" height="54px" viewBox="0 0 54 54" enable-background="new 0 0 54 54" xml:space="preserve">
<defs>
</defs>
<g>
	<g>
		<g>
			<g>
				<path fill="#FFFFFF" d="M34.7,45.6c-1.3,0-2.9-0.3-4.7-1c-3.9-1.5-8-4.3-11.8-8.1c-3.8-3.8-6.6-7.9-8.1-11.8
					c-1.3-3.5-1.3-6.4,0-7.7c0.2-0.2,0.4-0.4,0.6-0.6c1.2-1.3,2.6-2.7,4.4-2.6c1.2,0.1,2.4,0.8,3.7,2.3c3.6,4.5,2,6.1,0.1,8
					l-0.3,0.3c-0.3,0.3-0.9,1.7,4.6,7.2c1.8,1.8,3.3,3.1,4.5,3.9c0.8,0.5,2.1,1.2,2.7,0.7l0.3-0.3c1.9-1.9,3.5-3.5,8,0.1
					c1.5,1.2,2.3,2.4,2.3,3.7c0.1,1.8-1.4,3.2-2.6,4.4c-0.2,0.2-0.4,0.4-0.6,0.6C37.1,45.3,36,45.6,34.7,45.6z M15,14.9
					c-1.3,0-2.4,1.2-3.5,2.3c-0.2,0.2-0.4,0.4-0.6,0.6c-1,1-0.9,3.6,0.3,6.6c1.4,3.7,4.2,7.8,7.8,11.4c3.7,3.6,7.7,6.4,11.4,7.8
					c3,1.1,5.6,1.2,6.6,0.3c0.2-0.2,0.4-0.4,0.6-0.6c1.1-1,2.3-2.2,2.3-3.5c0-0.9-0.7-1.9-2-2.9c-3.8-3-4.8-2-6.6-0.2L31,37
					c-0.8,0.8-2.2,0.6-4-0.5c-1.3-0.8-2.8-2.2-4.7-4c-4.5-4.5-6-7.3-4.6-8.7l0.3-0.3c1.8-1.7,2.8-2.8-0.2-6.6
					C16.9,15.6,16,14.9,15,14.9C15,14.9,15,14.9,15,14.9z"/>
				<path fill="#FFFFFF" d="M34.7,45.8c-1.4,0-3-0.3-4.8-1c-3.9-1.5-8.1-4.4-11.9-8.1c-3.8-3.8-6.7-8-8.1-11.9c-1.4-3.6-1.3-6.6,0-8
					c0.2-0.2,0.3-0.3,0.5-0.5l0.1-0.1c1.2-1.2,2.7-2.8,4.5-2.7c1.3,0.1,2.6,0.9,3.9,2.4c3.8,4.7,2,6.5,0.1,8.3l-0.3,0.3
					c0,0-0.1,0.1-0.1,0.4c0,0.7,0.6,2.4,4.7,6.5c1.8,1.8,3.3,3.1,4.5,3.8c1.1,0.7,2.1,1,2.4,0.7l0.3-0.3c1.1-1.1,2.1-2.1,3.7-2.1
					c1.3,0,2.8,0.7,4.7,2.2c1.6,1.3,2.4,2.5,2.4,3.9c0.1,1.9-1.4,3.3-2.7,4.5l-0.1,0.1c-0.2,0.2-0.3,0.3-0.5,0.4
					C37.2,45.5,36.1,45.8,34.7,45.8z M15,14.1c-1.6,0-2.9,1.4-4,2.5l-0.1,0.1c-0.2,0.2-0.3,0.4-0.5,0.5c-1.2,1.2-1.2,4,0.1,7.4
					c1.4,3.8,4.3,8,8,11.7c3.7,3.7,7.9,6.6,11.7,8c3.3,1.3,6.2,1.3,7.4,0.1c0.1-0.1,0.3-0.3,0.5-0.5l0.1-0.1
					c1.2-1.2,2.6-2.5,2.5-4.2c0-1.2-0.8-2.3-2.3-3.5c-1.8-1.4-3.2-2.1-4.3-2.1c-1.4,0-2.3,0.9-3.3,2l-0.3,0.3
					c-0.2,0.2-0.4,0.3-0.7,0.3c-0.7,0-1.6-0.5-2.3-0.9c-1.2-0.8-2.8-2.1-4.5-3.9c-3.2-3.2-4.8-5.5-4.8-6.8c0-0.4,0.1-0.6,0.3-0.7
					l0.3-0.3c1.9-1.9,3.4-3.3-0.1-7.7c-1.2-1.5-2.3-2.2-3.5-2.3L15,14.1z M34.7,44.8c-1.3,0-2.8-0.3-4.4-0.9
					c-3.7-1.4-7.8-4.2-11.5-7.9c-3.7-3.7-6.5-7.8-7.9-11.5c-1.2-3.1-1.3-5.8-0.2-6.8c0.2-0.2,0.3-0.3,0.5-0.5l0.1-0.1
					c1.1-1.1,2.2-2.4,3.6-2.4l0.1,0c1,0,2,0.7,3.1,2c3.2,3.9,2,5.1,0.2,6.9L18,23.9c-1.3,1.3,0.2,4,4.6,8.4c1.8,1.8,3.4,3.2,4.6,4
					c1.7,1.1,3,1.3,3.7,0.6l0.3-0.3c1-1,1.8-1.8,3-1.8c1,0,2.2,0.6,3.9,2c1.3,1.1,2,2.1,2,3.1c0.1,1.4-1.2,2.6-2.4,3.7l-0.1,0.1
					c-0.2,0.2-0.4,0.4-0.5,0.5C36.7,44.5,35.8,44.8,34.7,44.8z M15,15.1c-1.2,0-2.3,1.2-3.3,2.2l-0.1,0.1c-0.2,0.2-0.3,0.4-0.5,0.5
					c-0.9,0.9-0.8,3.4,0.3,6.3c1.4,3.7,4.1,7.7,7.8,11.3c3.6,3.6,7.7,6.4,11.3,7.8c1.6,0.6,3,0.9,4.2,0.9c1,0,1.7-0.2,2.1-0.6
					c0.2-0.2,0.4-0.4,0.6-0.5l0.1-0.1c1.1-1,2.3-2.1,2.2-3.3c0-0.8-0.7-1.7-1.9-2.7c-1.6-1.3-2.7-1.9-3.6-1.9c-1,0-1.7,0.7-2.6,1.6
					l-0.3,0.3c-0.9,0.9-2.4,0.8-4.3-0.5c-1.3-0.8-2.9-2.2-4.7-4c-4.7-4.7-6.1-7.5-4.6-9.1l0.3-0.3c1.7-1.7,2.7-2.6-0.2-6.2
					C16.8,15.8,15.9,15.2,15,15.1L15,15.1z"/>
			</g>
		</g>
		<g>
			<path fill="#FFFFFF" d="M38.3,37c-0.2,0-0.3-0.1-0.4-0.2c-0.2-0.2-0.1-0.6,0.1-0.7c1.1-0.8,2.1-1.8,2.9-2.9
				c1.9-2.5,2.9-5.4,2.9-8.5c0-7.8-6.3-14.1-14.1-14.1c-2.4,0-4.7,0.6-6.8,1.7c-0.3,0.1-0.6,0-0.7-0.2c-0.1-0.3,0-0.6,0.2-0.7
				c2.2-1.2,4.7-1.8,7.3-1.8c8.4,0,15.2,6.8,15.2,15.2c0,3.4-1.1,6.5-3.1,9.2c-0.9,1.2-2,2.2-3.1,3.1C38.5,36.9,38.4,37,38.3,37z"/>
			<path fill="#FFFFFF" d="M38.3,37.2c-0.2,0-0.5-0.1-0.6-0.3c-0.3-0.4-0.2-0.8,0.2-1.1c1.1-0.8,2.1-1.7,2.9-2.8
				c1.8-2.4,2.8-5.3,2.8-8.4c0-3.7-1.4-7.2-4.1-9.8c-2.6-2.6-6.1-4.1-9.8-4.1c-2.3,0-4.6,0.6-6.6,1.7c-0.4,0.2-0.9,0.1-1.1-0.3
				c-0.1-0.2-0.1-0.4-0.1-0.6c0.1-0.2,0.2-0.4,0.4-0.5c2.3-1.2,4.8-1.9,7.4-1.9c8.5,0,15.4,6.9,15.4,15.4c0,3.4-1.1,6.6-3.1,9.3
				c-0.9,1.2-2,2.2-3.2,3.1C38.6,37.2,38.4,37.2,38.3,37.2z M29.6,10.2c3.8,0,7.4,1.5,10.2,4.2c2.7,2.7,4.2,6.3,4.2,10.2
				c0,3.2-1,6.2-2.9,8.7c-0.8,1.1-1.8,2.1-3,2.9c-0.1,0.1-0.2,0.3-0.1,0.4c0.1,0.1,0.3,0.1,0.4,0.1c1.2-0.9,2.2-1.9,3.1-3
				c2-2.6,3-5.7,3-9c0-8.2-6.7-14.9-14.9-14.9c-2.5,0-5,0.6-7.1,1.8c-0.1,0-0.1,0.1-0.1,0.2c0,0.1,0,0.1,0,0.2
				c0.1,0.1,0.2,0.2,0.4,0.1C24.9,10.8,27.2,10.2,29.6,10.2z"/>
		</g>
		<g>
			<g>
				<path fill="#FFFFFF" d="M26.7,18.8c0.6-0.2,1.2-0.3,1.9-0.3c1.7,0,2.7,0.9,2.7,2.3c0,0.8-0.4,1.4-1.4,2L28,24.1
					c-0.6,0.4-0.9,1-0.9,1.7h3.9c0.1,0,0.1,0,0.1,0.1v0.9c0,0.1,0,0.1-0.1,0.1h-5.1c-0.1,0-0.1,0-0.1-0.1v-0.6
					c0-1.5,0.5-2.5,1.6-3.2l1.9-1.3c0.5-0.3,0.7-0.6,0.7-1c0-0.7-0.5-1.1-1.4-1.1c-0.5,0-1.1,0.1-1.5,0.3l-0.7,0.2
					c-0.1,0-0.1,0-0.2-0.1l-0.3-0.9c0-0.1,0-0.1,0.1-0.2L26.7,18.8z"/>
				<path fill="#FFFFFF" d="M31.1,27.3h-5.1c-0.2,0-0.4-0.2-0.4-0.4v-0.6c0-1.6,0.5-2.7,1.7-3.4l1.9-1.3c0.5-0.3,0.6-0.6,0.6-0.8
					c0-0.5-0.4-0.9-1.1-0.9c-0.5,0-1,0.1-1.4,0.2l-0.8,0.2c-0.2,0-0.3-0.1-0.4-0.3l-0.3-0.9c0-0.1,0-0.2,0-0.3
					c0-0.1,0.1-0.2,0.3-0.2l0.7-0.2c0.7-0.2,1.4-0.3,2-0.3c1.8,0,3,1,3,2.6c0,0.9-0.5,1.6-1.5,2.2l-1.9,1.3
					c-0.4,0.3-0.7,0.7-0.7,1.2h3.6c0.2,0,0.4,0.2,0.4,0.4v0.9C31.4,27.1,31.3,27.3,31.1,27.3z M26.1,26.8h4.9v-0.7h-4v-0.3
					c0-0.8,0.3-1.5,1-1.9l1.9-1.3c0.9-0.6,1.3-1.1,1.3-1.8c0-1.3-0.9-2.1-2.5-2.1c-0.6,0-1.1,0.1-1.8,0.3l-0.6,0.2l0.2,0.7l0.6-0.2
					c0.5-0.2,1.1-0.3,1.6-0.3c1,0,1.6,0.5,1.6,1.4c0,0.5-0.3,0.8-0.8,1.2l-1.9,1.3c-1,0.6-1.4,1.6-1.4,3V26.8z"/>
			</g>
			<g>
				<path fill="#FFFFFF" d="M38.7,24.7c0,0.1,0,0.1-0.1,0.1h-0.7v2c0,0.1,0,0.1-0.1,0.1h-1.1c-0.1,0-0.1,0-0.1-0.1v-2h-4
					c-0.1,0-0.1,0-0.1-0.1v-1c0-0.1,0-0.1,0.1-0.2c0.3-0.3,0.6-0.7,0.9-1.1l2.2-2.9c0.2-0.3,0.4-0.6,0.6-0.9c0-0.1,0.1-0.1,0.2-0.1
					h1.5c0.1,0,0.1,0,0.1,0.1v4.9h0.7c0.1,0,0.1,0,0.1,0.1L38.7,24.7L38.7,24.7z M36.5,21.6c0-0.4,0-0.8,0.1-1.2
					c0-0.1-0.1-0.2-0.2,0l-1.9,2.5c-0.2,0.2-0.4,0.5-0.6,0.6c-0.1,0.1,0,0.2,0.1,0.2h2.5V21.6z"/>
				<path fill="#FFFFFF" d="M37.7,27.3h-1.1c-0.2,0-0.4-0.2-0.4-0.4v-1.8h-3.8c-0.2,0-0.4-0.2-0.4-0.4v-1c0-0.1,0-0.2,0.1-0.3
					c0.3-0.4,0.6-0.7,0.8-1l2.2-2.9c0.2-0.3,0.4-0.6,0.6-0.9c0.1-0.1,0.2-0.2,0.4-0.2h1.5c0.2,0,0.4,0.2,0.4,0.4v4.7h0.5
					c0.2,0,0.4,0.2,0.4,0.4v0.9c0,0.1,0,0.2-0.1,0.3c-0.1,0.1-0.2,0.1-0.3,0.1h-0.5v1.8C38.1,27.1,37.9,27.3,37.7,27.3z M36.8,26.8
					h0.8v-2.1h0.9l0-0.7h-0.9v-5.1h-1.3c-0.1,0.3-0.3,0.6-0.6,0.9l-2.2,2.9c-0.3,0.4-0.5,0.7-0.9,1.1v0.9h4.2V26.8z M36.8,23.9H34
					c-0.1,0-0.3-0.1-0.3-0.2c-0.1-0.1,0-0.3,0.1-0.4c0.2-0.2,0.4-0.4,0.5-0.6l2-2.5c0.1-0.1,0.2-0.2,0.3-0.2h0.1l0.1,0.1
					c0.1,0.1,0.1,0.2,0.1,0.3c0,0.4-0.1,0.8-0.1,1.1V23.9z M34.3,23.4h1.9v-1.8c0-0.2,0-0.4,0-0.7L34.6,23
					C34.6,23.1,34.4,23.3,34.3,23.4z"/>
			</g>
		</g>
	</g>
	<g>
		<path fill="#FFFFFF" d="M27,54C12.1,54,0,41.9,0,27S12.1,0,27,0s27,12.1,27,27S41.9,54,27,54z M27,1C12.7,1,1,12.7,1,27
			s11.7,26,26,26s26-11.7,26-26S41.3,1,27,1z"/>
	</g>
</g>
</svg>
