<!-- Generator: Adobe Illustrator 18.0.0, SVG Export Plug-In  -->
<svg version="1.1"
	 xmlns="http://www.w3.org/2000/svg" xmlns:xlink="http://www.w3.org/1999/xlink" xmlns:a="http://ns.adobe.com/AdobeSVGViewerExtensions/3.0/"
	 x="0px" y="0px" width="54px" height="54px" viewBox="0 0 54 54" enable-background="new 0 0 54 54" xml:space="preserve">
<defs>
</defs>
<g>
	<g>
		<g>
			<path fill="#FFFFFF" d="M27,19.6c-2.8,0-5,2.3-5,5c0,2.8,2.3,5,5,5s5-2.3,5-5C32,21.9,29.8,19.6,27,19.6z M27,27.7
				c-1.7,0-3-1.4-3-3c0-1.7,1.4-3,3-3c1.7,0,3,1.4,3,3C30,26.3,28.7,27.7,27,27.7z M27,12.6c-6.7,0-12.1,5.4-12.1,12.1
				c0,5.1,10.1,20.1,12.1,20.1c2,0,12.1-15.2,12.1-20.1C39.1,18,33.7,12.6,27,12.6z M27,41.8c-1.7,0-10.1-12.9-10.1-17.1
				c0-5.6,4.5-10.1,10.1-10.1c5.6,0,10.1,4.5,10.1,10.1C37.1,28.8,28.6,41.8,27,41.8z"/>
		</g>
	</g>
	<g>
		<path fill="#FFFFFF" d="M27,54C12.1,54,0,41.9,0,27S12.1,0,27,0s27,12.1,27,27S41.9,54,27,54z M27,1C12.7,1,1,12.7,1,27
			s11.7,26,26,26s26-11.7,26-26S41.3,1,27,1z"/>
	</g>
</g>
</svg>
