<!-- Generator: Adobe Illustrator 18.0.0, SVG Export Plug-In  -->
<svg version="1.1"
	 xmlns="http://www.w3.org/2000/svg" xmlns:xlink="http://www.w3.org/1999/xlink" xmlns:a="http://ns.adobe.com/AdobeSVGViewerExtensions/3.0/"
	 x="0px" y="0px" width="29.6px" height="29.6px" viewBox="0 0 29.6 29.6" enable-background="new 0 0 29.6 29.6"
	 xml:space="preserve">
<defs>
</defs>
<g>
	<g>
		<path fill="#FFFFFF" d="M17.1,9.2c0.3,0,0.5-0.2,0.5-0.5c0-0.3-0.2-0.5-0.5-0.5h0v-2c0-0.7-0.6-1.3-1.3-1.3H1.8
			C1.1,5,0.5,5.6,0.5,6.3v2h0C0.2,8.3,0,8.5,0,8.8C0,9,0.2,9.2,0.5,9.2h1.2v1.1l-0.6,0.3C0.5,11,0,11.9,0,12.6v15c0,1.1,0.9,2,2,2
			h13.5c1.1,0,2-0.9,2-2v-15c0-0.7-0.5-1.6-1.1-1.9L16,10.4V9.2H17.1L17.1,9.2z M16.7,27.6c0,0.6-0.5,1.1-1.1,1.1H2
			c-0.6,0-1.1-0.5-1.1-1.1v-1.1h15.7V27.6z M16.7,25.5H0.9v-9.1h15.7V25.5z M16.1,11.5c0.3,0.2,0.6,0.7,0.6,1.1v2.8H0.9v-2.8
			c0-0.4,0.3-0.9,0.6-1.1L2.3,11c0.1-0.1,0.2-0.2,0.2-0.4V9.2H15v1.4c0,0.2,0.1,0.3,0.2,0.4L16.1,11.5z M1.5,8.3v-2
			c0-0.2,0.1-0.3,0.3-0.3h1.9v0.9c0,0.3,0.2,0.5,0.5,0.5c0.3,0,0.5-0.2,0.5-0.5V5.9h2.2v0.9c0,0.3,0.2,0.5,0.5,0.5
			c0.3,0,0.5-0.2,0.5-0.5V5.9h2.2v0.9c0,0.3,0.2,0.5,0.5,0.5c0.3,0,0.5-0.2,0.5-0.5V5.9H13v0.9c0,0.3,0.2,0.5,0.5,0.5
			c0.3,0,0.5-0.2,0.5-0.5V5.9h1.9c0.2,0,0.3,0.1,0.3,0.3v2H1.5z"/>
		<path fill="#FFFFFF" d="M6,23.8h5.7c1.6,0,2.9-1.3,2.9-2.9s-1.3-2.9-2.9-2.9H6c-1.6,0-2.9,1.3-2.9,2.9S4.4,23.8,6,23.8L6,23.8z
			 M9.3,19h2.4c1.1,0,1.9,0.9,1.9,1.9c0,1.1-0.9,1.9-1.9,1.9H9.3V19z M6,19h2.4v3.8H6c-1.1,0-1.9-0.9-1.9-1.9C4.1,19.9,4.9,19,6,19z
			"/>
		<path fill="#FFFFFF" d="M13.6,10.2H7.8c-0.3,0-0.5,0.2-0.5,0.5c0,0.3,0.2,0.5,0.5,0.5h5.8c0.3,0,0.5-0.2,0.5-0.5
			C14.1,10.4,13.9,10.2,13.6,10.2z"/>
		<path fill="#FFFFFF" d="M5.9,10.2H4c-0.3,0-0.5,0.2-0.5,0.5c0,0.3,0.2,0.5,0.5,0.5h1.9c0.3,0,0.5-0.2,0.5-0.5
			C6.4,10.4,6.1,10.2,5.9,10.2z"/>
		<path fill="#FFFFFF" d="M19.3,27.2c0,0.3,0.2,0.5,0.5,0.5c0.3,0,0.5-0.2,0.5-0.5v-3.8c0-0.3-0.2-0.5-0.5-0.5
			c-0.3,0-0.5,0.2-0.5,0.5V27.2z"/>
		<path fill="#FFFFFF" d="M19.7,22c0.3,0,0.5-0.2,0.5-0.5V2.4c0-0.3-0.2-0.5-0.5-0.5c-0.3,0-0.5,0.2-0.5,0.5v19.2
			C19.3,21.8,19.5,22,19.7,22z"/>
		<path fill="#FFFFFF" d="M26,0H13.5c-2,0-3.6,1.6-3.6,3.6c0,0.3,0.2,0.5,0.5,0.5c0.3,0,0.5-0.2,0.5-0.5c0-1.4,1.2-2.6,2.6-2.6H26
			c1.4,0,2.6,1.2,2.6,2.6V26c0,1.4-1.2,2.6-2.6,2.6h-7.4c-0.3,0-0.5,0.2-0.5,0.5c0,0.3,0.2,0.5,0.5,0.5H26c2,0,3.6-1.6,3.6-3.6V3.6
			C29.6,1.6,28,0,26,0z"/>
		<path fill="#FFFFFF" d="M24.4,7.4c1.3,0,2.3-1,2.3-2.3c0-1.3-1-2.3-2.3-2.3c-1.3,0-2.3,1-2.3,2.3C22.1,6.4,23.2,7.4,24.4,7.4z
			 M24.4,3.7c0.8,0,1.4,0.6,1.4,1.4c0,0.8-0.6,1.4-1.4,1.4c-0.8,0-1.4-0.6-1.4-1.4C23.1,4.4,23.7,3.7,24.4,3.7z"/>
		<path fill="#FFFFFF" d="M24.4,13.9c1.3,0,2.3-1,2.3-2.3c0-1.3-1-2.3-2.3-2.3c-1.3,0-2.3,1-2.3,2.3C22.1,12.8,23.2,13.9,24.4,13.9
			L24.4,13.9z M24.4,10.2c0.8,0,1.4,0.6,1.4,1.4c0,0.8-0.6,1.4-1.4,1.4c-0.8,0-1.4-0.6-1.4-1.4C23.1,10.8,23.7,10.2,24.4,10.2z"/>
		<path fill="#FFFFFF" d="M24.4,20.3c1.3,0,2.3-1,2.3-2.3c0-1.3-1-2.3-2.3-2.3c-1.3,0-2.3,1-2.3,2.3C22.1,19.3,23.2,20.3,24.4,20.3z
			 M24.4,16.7c0.8,0,1.4,0.6,1.4,1.4c0,0.8-0.6,1.4-1.4,1.4c-0.8,0-1.4-0.6-1.4-1.4C23.1,17.3,23.7,16.7,24.4,16.7z"/>
		<path fill="#FFFFFF" d="M24.4,26.8c1.3,0,2.3-1,2.3-2.3c0-1.3-1-2.3-2.3-2.3c-1.3,0-2.3,1-2.3,2.3C22.1,25.8,23.2,26.8,24.4,26.8z
			 M24.4,23.1c0.8,0,1.4,0.6,1.4,1.4c0,0.8-0.6,1.4-1.4,1.4c-0.8,0-1.4-0.6-1.4-1.4C23.1,23.7,23.7,23.1,24.4,23.1z"/>
		<path fill="#FFFFFF" d="M14.3,4c0.2-0.2,0.5-0.2,0.8-0.2c0.3,0,0.5,0.1,0.8,0.2C15.9,4,16,4.1,16.1,4.1c0.1,0,0.3-0.1,0.4-0.2
			c0.1-0.2,0.1-0.5-0.1-0.7c-0.4-0.3-0.8-0.4-1.3-0.4c-0.5,0-0.9,0.1-1.3,0.4c-0.2,0.1-0.3,0.4-0.1,0.7C13.8,4.1,14.1,4.1,14.3,4
			L14.3,4z"/>
	</g>
</g>
</svg>
